<?xml version="1.0" encoding="utf-8" standalone="no"?>
<!DOCTYPE svg PUBLIC "-//W3C//DTD SVG 1.1//EN"
  "http://www.w3.org/Graphics/SVG/1.1/DTD/svg11.dtd">
<!-- Created with matplotlib (http://matplotlib.org/) -->
<svg height="720pt" version="1.1" viewBox="0 0 1080 720" width="1080pt" xmlns="http://www.w3.org/2000/svg" xmlns:xlink="http://www.w3.org/1999/xlink">
 <defs>
  <style type="text/css">
*{stroke-linecap:butt;stroke-linejoin:round;}
  </style>
 </defs>
 <g id="figure_1">
  <g id="patch_1">
   <path d="M 0 720 
L 1080 720 
L 1080 0 
L 0 0 
z
" style="fill:#ffffff;"/>
  </g>
  <g id="axes_1">
   <g id="patch_2">
    <path d="M 135 246.282353 
L 972 246.282353 
L 972 86.4 
L 135 86.4 
z
" style="fill:#ffffff;"/>
   </g>
   <g id="patch_3">
    <path clip-path="url(#p9748adda5c)" d="M 416.16504 246.282353 
L 422.364197 246.282353 
L 422.364197 235.623529 
L 416.16504 235.623529 
z
" style="fill:#1f77b4;"/>
   </g>
   <g id="patch_4">
    <path clip-path="url(#p9748adda5c)" d="M 422.364197 246.282353 
L 428.563354 246.282353 
L 428.563354 235.623529 
L 422.364197 235.623529 
z
" style="fill:#1f77b4;"/>
   </g>
   <g id="patch_5">
    <path clip-path="url(#p9748adda5c)" d="M 428.563354 246.282353 
L 434.76251 246.282353 
L 434.76251 246.282353 
L 428.563354 246.282353 
z
" style="fill:#1f77b4;"/>
   </g>
   <g id="patch_6">
    <path clip-path="url(#p9748adda5c)" d="M 434.76251 246.282353 
L 440.961667 246.282353 
L 440.961667 246.282353 
L 434.76251 246.282353 
z
" style="fill:#1f77b4;"/>
   </g>
   <g id="patch_7">
    <path clip-path="url(#p9748adda5c)" d="M 440.961667 246.282353 
L 447.160824 246.282353 
L 447.160824 240.952941 
L 440.961667 240.952941 
z
" style="fill:#1f77b4;"/>
   </g>
   <g id="patch_8">
    <path clip-path="url(#p9748adda5c)" d="M 447.160824 246.282353 
L 453.359981 246.282353 
L 453.359981 230.294118 
L 447.160824 230.294118 
z
" style="fill:#1f77b4;"/>
   </g>
   <g id="patch_9">
    <path clip-path="url(#p9748adda5c)" d="M 453.359981 246.282353 
L 459.559138 246.282353 
L 459.559138 240.952941 
L 453.359981 240.952941 
z
" style="fill:#1f77b4;"/>
   </g>
   <g id="patch_10">
    <path clip-path="url(#p9748adda5c)" d="M 459.559138 246.282353 
L 465.758294 246.282353 
L 465.758294 230.294118 
L 459.559138 230.294118 
z
" style="fill:#1f77b4;"/>
   </g>
   <g id="patch_11">
    <path clip-path="url(#p9748adda5c)" d="M 465.758294 246.282353 
L 471.957451 246.282353 
L 471.957451 224.964706 
L 465.758294 224.964706 
z
" style="fill:#1f77b4;"/>
   </g>
   <g id="patch_12">
    <path clip-path="url(#p9748adda5c)" d="M 471.957451 246.282353 
L 478.156608 246.282353 
L 478.156608 187.658824 
L 471.957451 187.658824 
z
" style="fill:#1f77b4;"/>
   </g>
   <g id="patch_13">
    <path clip-path="url(#p9748adda5c)" d="M 478.156608 246.282353 
L 484.355765 246.282353 
L 484.355765 182.329412 
L 478.156608 182.329412 
z
" style="fill:#1f77b4;"/>
   </g>
   <g id="patch_14">
    <path clip-path="url(#p9748adda5c)" d="M 484.355765 246.282353 
L 490.554922 246.282353 
L 490.554922 166.341176 
L 484.355765 166.341176 
z
" style="fill:#1f77b4;"/>
   </g>
   <g id="patch_15">
    <path clip-path="url(#p9748adda5c)" d="M 490.554922 246.282353 
L 496.754078 246.282353 
L 496.754078 182.329412 
L 490.554922 182.329412 
z
" style="fill:#1f77b4;"/>
   </g>
   <g id="patch_16">
    <path clip-path="url(#p9748adda5c)" d="M 496.754078 246.282353 
L 502.953235 246.282353 
L 502.953235 129.035294 
L 496.754078 129.035294 
z
" style="fill:#1f77b4;"/>
   </g>
   <g id="patch_17">
    <path clip-path="url(#p9748adda5c)" d="M 502.953235 246.282353 
L 509.152392 246.282353 
L 509.152392 155.682353 
L 502.953235 155.682353 
z
" style="fill:#1f77b4;"/>
   </g>
   <g id="patch_18">
    <path clip-path="url(#p9748adda5c)" d="M 509.152392 246.282353 
L 515.351549 246.282353 
L 515.351549 182.329412 
L 509.152392 182.329412 
z
" style="fill:#1f77b4;"/>
   </g>
   <g id="patch_19">
    <path clip-path="url(#p9748adda5c)" d="M 515.351549 246.282353 
L 521.550706 246.282353 
L 521.550706 208.976471 
L 515.351549 208.976471 
z
" style="fill:#1f77b4;"/>
   </g>
   <g id="patch_20">
    <path clip-path="url(#p9748adda5c)" d="M 521.550706 246.282353 
L 527.749862 246.282353 
L 527.749862 230.294118 
L 521.550706 230.294118 
z
" style="fill:#1f77b4;"/>
   </g>
   <g id="patch_21">
    <path clip-path="url(#p9748adda5c)" d="M 527.749862 246.282353 
L 533.949019 246.282353 
L 533.949019 224.964706 
L 527.749862 224.964706 
z
" style="fill:#1f77b4;"/>
   </g>
   <g id="patch_22">
    <path clip-path="url(#p9748adda5c)" d="M 533.949019 246.282353 
L 540.148176 246.282353 
L 540.148176 224.964706 
L 533.949019 224.964706 
z
" style="fill:#1f77b4;"/>
   </g>
   <g id="patch_23">
    <path clip-path="url(#p9748adda5c)" d="M 540.148176 246.282353 
L 546.347333 246.282353 
L 546.347333 230.294118 
L 540.148176 230.294118 
z
" style="fill:#1f77b4;"/>
   </g>
   <g id="patch_24">
    <path clip-path="url(#p9748adda5c)" d="M 546.347333 246.282353 
L 552.54649 246.282353 
L 552.54649 246.282353 
L 546.347333 246.282353 
z
" style="fill:#1f77b4;"/>
   </g>
   <g id="patch_25">
    <path clip-path="url(#p9748adda5c)" d="M 552.54649 246.282353 
L 558.745646 246.282353 
L 558.745646 240.952941 
L 552.54649 240.952941 
z
" style="fill:#1f77b4;"/>
   </g>
   <g id="patch_26">
    <path clip-path="url(#p9748adda5c)" d="M 558.745646 246.282353 
L 564.944803 246.282353 
L 564.944803 246.282353 
L 558.745646 246.282353 
z
" style="fill:#1f77b4;"/>
   </g>
   <g id="patch_27">
    <path clip-path="url(#p9748adda5c)" d="M 564.944803 246.282353 
L 571.14396 246.282353 
L 571.14396 235.623529 
L 564.944803 235.623529 
z
" style="fill:#1f77b4;"/>
   </g>
   <g id="patch_28">
    <path clip-path="url(#p9748adda5c)" d="M 571.14396 246.282353 
L 577.343117 246.282353 
L 577.343117 246.282353 
L 571.14396 246.282353 
z
" style="fill:#1f77b4;"/>
   </g>
   <g id="patch_29">
    <path clip-path="url(#p9748adda5c)" d="M 577.343117 246.282353 
L 583.542274 246.282353 
L 583.542274 240.952941 
L 577.343117 240.952941 
z
" style="fill:#1f77b4;"/>
   </g>
   <g id="patch_30">
    <path clip-path="url(#p9748adda5c)" d="M 583.542274 246.282353 
L 589.74143 246.282353 
L 589.74143 246.282353 
L 583.542274 246.282353 
z
" style="fill:#1f77b4;"/>
   </g>
   <g id="patch_31">
    <path clip-path="url(#p9748adda5c)" d="M 589.74143 246.282353 
L 595.940587 246.282353 
L 595.940587 246.282353 
L 589.74143 246.282353 
z
" style="fill:#1f77b4;"/>
   </g>
   <g id="patch_32">
    <path clip-path="url(#p9748adda5c)" d="M 595.940587 246.282353 
L 602.139744 246.282353 
L 602.139744 246.282353 
L 595.940587 246.282353 
z
" style="fill:#1f77b4;"/>
   </g>
   <g id="patch_33">
    <path clip-path="url(#p9748adda5c)" d="M 602.139744 246.282353 
L 608.338901 246.282353 
L 608.338901 240.952941 
L 602.139744 240.952941 
z
" style="fill:#1f77b4;"/>
   </g>
   <g id="patch_34">
    <path clip-path="url(#p9748adda5c)" d="M 608.338901 246.282353 
L 614.538058 246.282353 
L 614.538058 240.952941 
L 608.338901 240.952941 
z
" style="fill:#1f77b4;"/>
   </g>
   <g id="patch_35">
    <path clip-path="url(#p9748adda5c)" d="M 614.538058 246.282353 
L 620.737214 246.282353 
L 620.737214 246.282353 
L 614.538058 246.282353 
z
" style="fill:#1f77b4;"/>
   </g>
   <g id="patch_36">
    <path clip-path="url(#p9748adda5c)" d="M 620.737214 246.282353 
L 626.936371 246.282353 
L 626.936371 240.952941 
L 620.737214 240.952941 
z
" style="fill:#1f77b4;"/>
   </g>
   <g id="patch_37">
    <path clip-path="url(#p9748adda5c)" d="M 626.936371 246.282353 
L 633.135528 246.282353 
L 633.135528 246.282353 
L 626.936371 246.282353 
z
" style="fill:#1f77b4;"/>
   </g>
   <g id="patch_38">
    <path clip-path="url(#p9748adda5c)" d="M 633.135528 246.282353 
L 639.334685 246.282353 
L 639.334685 246.282353 
L 633.135528 246.282353 
z
" style="fill:#1f77b4;"/>
   </g>
   <g id="patch_39">
    <path clip-path="url(#p9748adda5c)" d="M 639.334685 246.282353 
L 645.533842 246.282353 
L 645.533842 246.282353 
L 639.334685 246.282353 
z
" style="fill:#1f77b4;"/>
   </g>
   <g id="patch_40">
    <path clip-path="url(#p9748adda5c)" d="M 645.533842 246.282353 
L 651.732998 246.282353 
L 651.732998 246.282353 
L 645.533842 246.282353 
z
" style="fill:#1f77b4;"/>
   </g>
   <g id="patch_41">
    <path clip-path="url(#p9748adda5c)" d="M 651.732998 246.282353 
L 657.932155 246.282353 
L 657.932155 246.282353 
L 651.732998 246.282353 
z
" style="fill:#1f77b4;"/>
   </g>
   <g id="patch_42">
    <path clip-path="url(#p9748adda5c)" d="M 657.932155 246.282353 
L 664.131312 246.282353 
L 664.131312 246.282353 
L 657.932155 246.282353 
z
" style="fill:#1f77b4;"/>
   </g>
   <g id="patch_43">
    <path clip-path="url(#p9748adda5c)" d="M 664.131312 246.282353 
L 670.330469 246.282353 
L 670.330469 246.282353 
L 664.131312 246.282353 
z
" style="fill:#1f77b4;"/>
   </g>
   <g id="patch_44">
    <path clip-path="url(#p9748adda5c)" d="M 670.330469 246.282353 
L 676.529626 246.282353 
L 676.529626 246.282353 
L 670.330469 246.282353 
z
" style="fill:#1f77b4;"/>
   </g>
   <g id="patch_45">
    <path clip-path="url(#p9748adda5c)" d="M 676.529626 246.282353 
L 682.728782 246.282353 
L 682.728782 246.282353 
L 676.529626 246.282353 
z
" style="fill:#1f77b4;"/>
   </g>
   <g id="patch_46">
    <path clip-path="url(#p9748adda5c)" d="M 682.728782 246.282353 
L 688.927939 246.282353 
L 688.927939 246.282353 
L 682.728782 246.282353 
z
" style="fill:#1f77b4;"/>
   </g>
   <g id="patch_47">
    <path clip-path="url(#p9748adda5c)" d="M 688.927939 246.282353 
L 695.127096 246.282353 
L 695.127096 246.282353 
L 688.927939 246.282353 
z
" style="fill:#1f77b4;"/>
   </g>
   <g id="patch_48">
    <path clip-path="url(#p9748adda5c)" d="M 695.127096 246.282353 
L 701.326253 246.282353 
L 701.326253 246.282353 
L 695.127096 246.282353 
z
" style="fill:#1f77b4;"/>
   </g>
   <g id="patch_49">
    <path clip-path="url(#p9748adda5c)" d="M 701.326253 246.282353 
L 707.52541 246.282353 
L 707.52541 246.282353 
L 701.326253 246.282353 
z
" style="fill:#1f77b4;"/>
   </g>
   <g id="patch_50">
    <path clip-path="url(#p9748adda5c)" d="M 707.52541 246.282353 
L 713.724566 246.282353 
L 713.724566 246.282353 
L 707.52541 246.282353 
z
" style="fill:#1f77b4;"/>
   </g>
   <g id="patch_51">
    <path clip-path="url(#p9748adda5c)" d="M 713.724566 246.282353 
L 719.923723 246.282353 
L 719.923723 246.282353 
L 713.724566 246.282353 
z
" style="fill:#1f77b4;"/>
   </g>
   <g id="patch_52">
    <path clip-path="url(#p9748adda5c)" d="M 719.923723 246.282353 
L 726.12288 246.282353 
L 726.12288 240.952941 
L 719.923723 240.952941 
z
" style="fill:#1f77b4;"/>
   </g>
   <g id="matplotlib.axis_1">
    <g id="xtick_1">
     <g id="line2d_1">
      <defs>
       <path d="M 0 0 
L 0 3.5 
" id="m88a6fdce94" style="stroke:#000000;stroke-width:1.6;"/>
      </defs>
      <g>
       <use style="stroke:#000000;stroke-width:1.6;" x="201.96" xlink:href="#m88a6fdce94" y="246.282353"/>
      </g>
     </g>
     <g id="text_1">
      <!-- −40 -->
      <defs>
       <path d="M 10.59375 35.5 
L 73.1875 35.5 
L 73.1875 27.203125 
L 10.59375 27.203125 
z
" id="DejaVuSans-2212"/>
       <path d="M 37.796875 64.3125 
L 12.890625 25.390625 
L 37.796875 25.390625 
z
M 35.203125 72.90625 
L 47.609375 72.90625 
L 47.609375 25.390625 
L 58.015625 25.390625 
L 58.015625 17.1875 
L 47.609375 17.1875 
L 47.609375 0 
L 37.796875 0 
L 37.796875 17.1875 
L 4.890625 17.1875 
L 4.890625 26.703125 
z
" id="DejaVuSans-34"/>
       <path d="M 31.78125 66.40625 
Q 24.171875 66.40625 20.328125 58.90625 
Q 16.5 51.421875 16.5 36.375 
Q 16.5 21.390625 20.328125 13.890625 
Q 24.171875 6.390625 31.78125 6.390625 
Q 39.453125 6.390625 43.28125 13.890625 
Q 47.125 21.390625 47.125 36.375 
Q 47.125 51.421875 43.28125 58.90625 
Q 39.453125 66.40625 31.78125 66.40625 
z
M 31.78125 74.21875 
Q 44.046875 74.21875 50.515625 64.515625 
Q 56.984375 54.828125 56.984375 36.375 
Q 56.984375 17.96875 50.515625 8.265625 
Q 44.046875 -1.421875 31.78125 -1.421875 
Q 19.53125 -1.421875 13.0625 8.265625 
Q 6.59375 17.96875 6.59375 36.375 
Q 6.59375 54.828125 13.0625 64.515625 
Q 19.53125 74.21875 31.78125 74.21875 
z
" id="DejaVuSans-30"/>
      </defs>
      <g transform="translate(185.07625 273.139853)scale(0.16 -0.16)">
       <use xlink:href="#DejaVuSans-2212"/>
       <use x="83.789062" xlink:href="#DejaVuSans-34"/>
       <use x="147.412109" xlink:href="#DejaVuSans-30"/>
      </g>
     </g>
    </g>
    <g id="xtick_2">
     <g id="line2d_2">
      <g>
       <use style="stroke:#000000;stroke-width:1.6;" x="335.88" xlink:href="#m88a6fdce94" y="246.282353"/>
      </g>
     </g>
     <g id="text_2">
      <!-- −20 -->
      <defs>
       <path d="M 19.1875 8.296875 
L 53.609375 8.296875 
L 53.609375 0 
L 7.328125 0 
L 7.328125 8.296875 
Q 12.9375 14.109375 22.625 23.890625 
Q 32.328125 33.6875 34.8125 36.53125 
Q 39.546875 41.84375 41.421875 45.53125 
Q 43.3125 49.21875 43.3125 52.78125 
Q 43.3125 58.59375 39.234375 62.25 
Q 35.15625 65.921875 28.609375 65.921875 
Q 23.96875 65.921875 18.8125 64.3125 
Q 13.671875 62.703125 7.8125 59.421875 
L 7.8125 69.390625 
Q 13.765625 71.78125 18.9375 73 
Q 24.125 74.21875 28.421875 74.21875 
Q 39.75 74.21875 46.484375 68.546875 
Q 53.21875 62.890625 53.21875 53.421875 
Q 53.21875 48.921875 51.53125 44.890625 
Q 49.859375 40.875 45.40625 35.40625 
Q 44.1875 33.984375 37.640625 27.21875 
Q 31.109375 20.453125 19.1875 8.296875 
z
" id="DejaVuSans-32"/>
      </defs>
      <g transform="translate(318.99625 273.139853)scale(0.16 -0.16)">
       <use xlink:href="#DejaVuSans-2212"/>
       <use x="83.789062" xlink:href="#DejaVuSans-32"/>
       <use x="147.412109" xlink:href="#DejaVuSans-30"/>
      </g>
     </g>
    </g>
    <g id="xtick_3">
     <g id="line2d_3">
      <g>
       <use style="stroke:#000000;stroke-width:1.6;" x="469.8" xlink:href="#m88a6fdce94" y="246.282353"/>
      </g>
     </g>
     <g id="text_3">
      <!-- 0 -->
      <g transform="translate(464.71 273.139853)scale(0.16 -0.16)">
       <use xlink:href="#DejaVuSans-30"/>
      </g>
     </g>
    </g>
    <g id="xtick_4">
     <g id="line2d_4">
      <g>
       <use style="stroke:#000000;stroke-width:1.6;" x="603.72" xlink:href="#m88a6fdce94" y="246.282353"/>
      </g>
     </g>
     <g id="text_4">
      <!-- 20 -->
      <g transform="translate(593.54 273.139853)scale(0.16 -0.16)">
       <use xlink:href="#DejaVuSans-32"/>
       <use x="63.623047" xlink:href="#DejaVuSans-30"/>
      </g>
     </g>
    </g>
    <g id="xtick_5">
     <g id="line2d_5">
      <g>
       <use style="stroke:#000000;stroke-width:1.6;" x="737.64" xlink:href="#m88a6fdce94" y="246.282353"/>
      </g>
     </g>
     <g id="text_5">
      <!-- 40 -->
      <g transform="translate(727.46 273.139853)scale(0.16 -0.16)">
       <use xlink:href="#DejaVuSans-34"/>
       <use x="63.623047" xlink:href="#DejaVuSans-30"/>
      </g>
     </g>
    </g>
    <g id="xtick_6">
     <g id="line2d_6">
      <g>
       <use style="stroke:#000000;stroke-width:1.6;" x="871.56" xlink:href="#m88a6fdce94" y="246.282353"/>
      </g>
     </g>
     <g id="text_6">
      <!-- 60 -->
      <defs>
       <path d="M 33.015625 40.375 
Q 26.375 40.375 22.484375 35.828125 
Q 18.609375 31.296875 18.609375 23.390625 
Q 18.609375 15.53125 22.484375 10.953125 
Q 26.375 6.390625 33.015625 6.390625 
Q 39.65625 6.390625 43.53125 10.953125 
Q 47.40625 15.53125 47.40625 23.390625 
Q 47.40625 31.296875 43.53125 35.828125 
Q 39.65625 40.375 33.015625 40.375 
z
M 52.59375 71.296875 
L 52.59375 62.3125 
Q 48.875 64.0625 45.09375 64.984375 
Q 41.3125 65.921875 37.59375 65.921875 
Q 27.828125 65.921875 22.671875 59.328125 
Q 17.53125 52.734375 16.796875 39.40625 
Q 19.671875 43.65625 24.015625 45.921875 
Q 28.375 48.1875 33.59375 48.1875 
Q 44.578125 48.1875 50.953125 41.515625 
Q 57.328125 34.859375 57.328125 23.390625 
Q 57.328125 12.15625 50.6875 5.359375 
Q 44.046875 -1.421875 33.015625 -1.421875 
Q 20.359375 -1.421875 13.671875 8.265625 
Q 6.984375 17.96875 6.984375 36.375 
Q 6.984375 53.65625 15.1875 63.9375 
Q 23.390625 74.21875 37.203125 74.21875 
Q 40.921875 74.21875 44.703125 73.484375 
Q 48.484375 72.75 52.59375 71.296875 
z
" id="DejaVuSans-36"/>
      </defs>
      <g transform="translate(861.38 273.139853)scale(0.16 -0.16)">
       <use xlink:href="#DejaVuSans-36"/>
       <use x="63.623047" xlink:href="#DejaVuSans-30"/>
      </g>
     </g>
    </g>
   </g>
   <g id="matplotlib.axis_2">
    <g id="ytick_1">
     <g id="line2d_7">
      <defs>
       <path d="M 0 0 
L -3.5 0 
" id="m472f243b3d" style="stroke:#000000;stroke-width:1.6;"/>
      </defs>
      <g>
       <use style="stroke:#000000;stroke-width:1.6;" x="135" xlink:href="#m472f243b3d" y="246.282353"/>
      </g>
     </g>
     <g id="text_7">
      <!-- 0 -->
      <g transform="translate(110.12 252.361103)scale(0.16 -0.16)">
       <use xlink:href="#DejaVuSans-30"/>
      </g>
     </g>
    </g>
    <g id="ytick_2">
     <g id="line2d_8">
      <g>
       <use style="stroke:#000000;stroke-width:1.6;" x="135" xlink:href="#m472f243b3d" y="192.988235"/>
      </g>
     </g>
     <g id="text_8">
      <!-- 10 -->
      <defs>
       <path d="M 12.40625 8.296875 
L 28.515625 8.296875 
L 28.515625 63.921875 
L 10.984375 60.40625 
L 10.984375 69.390625 
L 28.421875 72.90625 
L 38.28125 72.90625 
L 38.28125 8.296875 
L 54.390625 8.296875 
L 54.390625 0 
L 12.40625 0 
z
" id="DejaVuSans-31"/>
      </defs>
      <g transform="translate(99.94 199.066985)scale(0.16 -0.16)">
       <use xlink:href="#DejaVuSans-31"/>
       <use x="63.623047" xlink:href="#DejaVuSans-30"/>
      </g>
     </g>
    </g>
    <g id="ytick_3">
     <g id="line2d_9">
      <g>
       <use style="stroke:#000000;stroke-width:1.6;" x="135" xlink:href="#m472f243b3d" y="139.694118"/>
      </g>
     </g>
     <g id="text_9">
      <!-- 20 -->
      <g transform="translate(99.94 145.772868)scale(0.16 -0.16)">
       <use xlink:href="#DejaVuSans-32"/>
       <use x="63.623047" xlink:href="#DejaVuSans-30"/>
      </g>
     </g>
    </g>
    <g id="ytick_4">
     <g id="line2d_10">
      <g>
       <use style="stroke:#000000;stroke-width:1.6;" x="135" xlink:href="#m472f243b3d" y="86.4"/>
      </g>
     </g>
     <g id="text_10">
      <!-- 30 -->
      <defs>
       <path d="M 40.578125 39.3125 
Q 47.65625 37.796875 51.625 33 
Q 55.609375 28.21875 55.609375 21.1875 
Q 55.609375 10.40625 48.1875 4.484375 
Q 40.765625 -1.421875 27.09375 -1.421875 
Q 22.515625 -1.421875 17.65625 -0.515625 
Q 12.796875 0.390625 7.625 2.203125 
L 7.625 11.71875 
Q 11.71875 9.328125 16.59375 8.109375 
Q 21.484375 6.890625 26.8125 6.890625 
Q 36.078125 6.890625 40.9375 10.546875 
Q 45.796875 14.203125 45.796875 21.1875 
Q 45.796875 27.640625 41.28125 31.265625 
Q 36.765625 34.90625 28.71875 34.90625 
L 20.21875 34.90625 
L 20.21875 43.015625 
L 29.109375 43.015625 
Q 36.375 43.015625 40.234375 45.921875 
Q 44.09375 48.828125 44.09375 54.296875 
Q 44.09375 59.90625 40.109375 62.90625 
Q 36.140625 65.921875 28.71875 65.921875 
Q 24.65625 65.921875 20.015625 65.03125 
Q 15.375 64.15625 9.8125 62.3125 
L 9.8125 71.09375 
Q 15.4375 72.65625 20.34375 73.4375 
Q 25.25 74.21875 29.59375 74.21875 
Q 40.828125 74.21875 47.359375 69.109375 
Q 53.90625 64.015625 53.90625 55.328125 
Q 53.90625 49.265625 50.4375 45.09375 
Q 46.96875 40.921875 40.578125 39.3125 
z
" id="DejaVuSans-33"/>
      </defs>
      <g transform="translate(99.94 92.47875)scale(0.16 -0.16)">
       <use xlink:href="#DejaVuSans-33"/>
       <use x="63.623047" xlink:href="#DejaVuSans-30"/>
      </g>
     </g>
    </g>
   </g>
   <g id="line2d_11">
    <path clip-path="url(#p9748adda5c)" d="M 501.019412 246.282353 
L 501.019412 86.4 
" style="fill:none;stroke:#1f77b4;stroke-dasharray:10.36,4.48;stroke-dashoffset:0;stroke-width:2.8;"/>
   </g>
   <g id="patch_53">
    <path d="M 135 246.282353 
L 135 86.4 
" style="fill:none;stroke:#000000;stroke-linecap:square;stroke-linejoin:miter;stroke-width:0.8;"/>
   </g>
   <g id="patch_54">
    <path d="M 972 246.282353 
L 972 86.4 
" style="fill:none;stroke:#000000;stroke-linecap:square;stroke-linejoin:miter;stroke-width:0.8;"/>
   </g>
   <g id="patch_55">
    <path d="M 135 246.282353 
L 972 246.282353 
" style="fill:none;stroke:#000000;stroke-linecap:square;stroke-linejoin:miter;stroke-width:0.8;"/>
   </g>
   <g id="patch_56">
    <path d="M 135 86.4 
L 972 86.4 
" style="fill:none;stroke:#000000;stroke-linecap:square;stroke-linejoin:miter;stroke-width:0.8;"/>
   </g>
   <g id="text_11">
    <!-- Return of Bonds, Stocks, and 50/50 Portfolio Over 30 Years, 1871-2016 -->
    <defs>
     <path d="M 44.390625 34.1875 
Q 47.5625 33.109375 50.5625 29.59375 
Q 53.5625 26.078125 56.59375 19.921875 
L 66.609375 0 
L 56 0 
L 46.6875 18.703125 
Q 43.0625 26.03125 39.671875 28.421875 
Q 36.28125 30.8125 30.421875 30.8125 
L 19.671875 30.8125 
L 19.671875 0 
L 9.8125 0 
L 9.8125 72.90625 
L 32.078125 72.90625 
Q 44.578125 72.90625 50.734375 67.671875 
Q 56.890625 62.453125 56.890625 51.90625 
Q 56.890625 45.015625 53.6875 40.46875 
Q 50.484375 35.9375 44.390625 34.1875 
z
M 19.671875 64.796875 
L 19.671875 38.921875 
L 32.078125 38.921875 
Q 39.203125 38.921875 42.84375 42.21875 
Q 46.484375 45.515625 46.484375 51.90625 
Q 46.484375 58.296875 42.84375 61.546875 
Q 39.203125 64.796875 32.078125 64.796875 
z
" id="DejaVuSans-52"/>
     <path d="M 56.203125 29.59375 
L 56.203125 25.203125 
L 14.890625 25.203125 
Q 15.484375 15.921875 20.484375 11.0625 
Q 25.484375 6.203125 34.421875 6.203125 
Q 39.59375 6.203125 44.453125 7.46875 
Q 49.3125 8.734375 54.109375 11.28125 
L 54.109375 2.78125 
Q 49.265625 0.734375 44.1875 -0.34375 
Q 39.109375 -1.421875 33.890625 -1.421875 
Q 20.796875 -1.421875 13.15625 6.1875 
Q 5.515625 13.8125 5.515625 26.8125 
Q 5.515625 40.234375 12.765625 48.109375 
Q 20.015625 56 32.328125 56 
Q 43.359375 56 49.78125 48.890625 
Q 56.203125 41.796875 56.203125 29.59375 
z
M 47.21875 32.234375 
Q 47.125 39.59375 43.09375 43.984375 
Q 39.0625 48.390625 32.421875 48.390625 
Q 24.90625 48.390625 20.390625 44.140625 
Q 15.875 39.890625 15.1875 32.171875 
z
" id="DejaVuSans-65"/>
     <path d="M 18.3125 70.21875 
L 18.3125 54.6875 
L 36.8125 54.6875 
L 36.8125 47.703125 
L 18.3125 47.703125 
L 18.3125 18.015625 
Q 18.3125 11.328125 20.140625 9.421875 
Q 21.96875 7.515625 27.59375 7.515625 
L 36.8125 7.515625 
L 36.8125 0 
L 27.59375 0 
Q 17.1875 0 13.234375 3.875 
Q 9.28125 7.765625 9.28125 18.015625 
L 9.28125 47.703125 
L 2.6875 47.703125 
L 2.6875 54.6875 
L 9.28125 54.6875 
L 9.28125 70.21875 
z
" id="DejaVuSans-74"/>
     <path d="M 8.5 21.578125 
L 8.5 54.6875 
L 17.484375 54.6875 
L 17.484375 21.921875 
Q 17.484375 14.15625 20.5 10.265625 
Q 23.53125 6.390625 29.59375 6.390625 
Q 36.859375 6.390625 41.078125 11.03125 
Q 45.3125 15.671875 45.3125 23.6875 
L 45.3125 54.6875 
L 54.296875 54.6875 
L 54.296875 0 
L 45.3125 0 
L 45.3125 8.40625 
Q 42.046875 3.421875 37.71875 1 
Q 33.40625 -1.421875 27.6875 -1.421875 
Q 18.265625 -1.421875 13.375 4.4375 
Q 8.5 10.296875 8.5 21.578125 
z
M 31.109375 56 
z
" id="DejaVuSans-75"/>
     <path d="M 41.109375 46.296875 
Q 39.59375 47.171875 37.8125 47.578125 
Q 36.03125 48 33.890625 48 
Q 26.265625 48 22.1875 43.046875 
Q 18.109375 38.09375 18.109375 28.8125 
L 18.109375 0 
L 9.078125 0 
L 9.078125 54.6875 
L 18.109375 54.6875 
L 18.109375 46.1875 
Q 20.953125 51.171875 25.484375 53.578125 
Q 30.03125 56 36.53125 56 
Q 37.453125 56 38.578125 55.875 
Q 39.703125 55.765625 41.0625 55.515625 
z
" id="DejaVuSans-72"/>
     <path d="M 54.890625 33.015625 
L 54.890625 0 
L 45.90625 0 
L 45.90625 32.71875 
Q 45.90625 40.484375 42.875 44.328125 
Q 39.84375 48.1875 33.796875 48.1875 
Q 26.515625 48.1875 22.3125 43.546875 
Q 18.109375 38.921875 18.109375 30.90625 
L 18.109375 0 
L 9.078125 0 
L 9.078125 54.6875 
L 18.109375 54.6875 
L 18.109375 46.1875 
Q 21.34375 51.125 25.703125 53.5625 
Q 30.078125 56 35.796875 56 
Q 45.21875 56 50.046875 50.171875 
Q 54.890625 44.34375 54.890625 33.015625 
z
" id="DejaVuSans-6e"/>
     <path id="DejaVuSans-20"/>
     <path d="M 30.609375 48.390625 
Q 23.390625 48.390625 19.1875 42.75 
Q 14.984375 37.109375 14.984375 27.296875 
Q 14.984375 17.484375 19.15625 11.84375 
Q 23.34375 6.203125 30.609375 6.203125 
Q 37.796875 6.203125 41.984375 11.859375 
Q 46.1875 17.53125 46.1875 27.296875 
Q 46.1875 37.015625 41.984375 42.703125 
Q 37.796875 48.390625 30.609375 48.390625 
z
M 30.609375 56 
Q 42.328125 56 49.015625 48.375 
Q 55.71875 40.765625 55.71875 27.296875 
Q 55.71875 13.875 49.015625 6.21875 
Q 42.328125 -1.421875 30.609375 -1.421875 
Q 18.84375 -1.421875 12.171875 6.21875 
Q 5.515625 13.875 5.515625 27.296875 
Q 5.515625 40.765625 12.171875 48.375 
Q 18.84375 56 30.609375 56 
z
" id="DejaVuSans-6f"/>
     <path d="M 37.109375 75.984375 
L 37.109375 68.5 
L 28.515625 68.5 
Q 23.6875 68.5 21.796875 66.546875 
Q 19.921875 64.59375 19.921875 59.515625 
L 19.921875 54.6875 
L 34.71875 54.6875 
L 34.71875 47.703125 
L 19.921875 47.703125 
L 19.921875 0 
L 10.890625 0 
L 10.890625 47.703125 
L 2.296875 47.703125 
L 2.296875 54.6875 
L 10.890625 54.6875 
L 10.890625 58.5 
Q 10.890625 67.625 15.140625 71.796875 
Q 19.390625 75.984375 28.609375 75.984375 
z
" id="DejaVuSans-66"/>
     <path d="M 19.671875 34.8125 
L 19.671875 8.109375 
L 35.5 8.109375 
Q 43.453125 8.109375 47.28125 11.40625 
Q 51.125 14.703125 51.125 21.484375 
Q 51.125 28.328125 47.28125 31.5625 
Q 43.453125 34.8125 35.5 34.8125 
z
M 19.671875 64.796875 
L 19.671875 42.828125 
L 34.28125 42.828125 
Q 41.5 42.828125 45.03125 45.53125 
Q 48.578125 48.25 48.578125 53.8125 
Q 48.578125 59.328125 45.03125 62.0625 
Q 41.5 64.796875 34.28125 64.796875 
z
M 9.8125 72.90625 
L 35.015625 72.90625 
Q 46.296875 72.90625 52.390625 68.21875 
Q 58.5 63.53125 58.5 54.890625 
Q 58.5 48.1875 55.375 44.234375 
Q 52.25 40.28125 46.1875 39.3125 
Q 53.46875 37.75 57.5 32.78125 
Q 61.53125 27.828125 61.53125 20.40625 
Q 61.53125 10.640625 54.890625 5.3125 
Q 48.25 0 35.984375 0 
L 9.8125 0 
z
" id="DejaVuSans-42"/>
     <path d="M 45.40625 46.390625 
L 45.40625 75.984375 
L 54.390625 75.984375 
L 54.390625 0 
L 45.40625 0 
L 45.40625 8.203125 
Q 42.578125 3.328125 38.25 0.953125 
Q 33.9375 -1.421875 27.875 -1.421875 
Q 17.96875 -1.421875 11.734375 6.484375 
Q 5.515625 14.40625 5.515625 27.296875 
Q 5.515625 40.1875 11.734375 48.09375 
Q 17.96875 56 27.875 56 
Q 33.9375 56 38.25 53.625 
Q 42.578125 51.265625 45.40625 46.390625 
z
M 14.796875 27.296875 
Q 14.796875 17.390625 18.875 11.75 
Q 22.953125 6.109375 30.078125 6.109375 
Q 37.203125 6.109375 41.296875 11.75 
Q 45.40625 17.390625 45.40625 27.296875 
Q 45.40625 37.203125 41.296875 42.84375 
Q 37.203125 48.484375 30.078125 48.484375 
Q 22.953125 48.484375 18.875 42.84375 
Q 14.796875 37.203125 14.796875 27.296875 
z
" id="DejaVuSans-64"/>
     <path d="M 44.28125 53.078125 
L 44.28125 44.578125 
Q 40.484375 46.53125 36.375 47.5 
Q 32.28125 48.484375 27.875 48.484375 
Q 21.1875 48.484375 17.84375 46.4375 
Q 14.5 44.390625 14.5 40.28125 
Q 14.5 37.15625 16.890625 35.375 
Q 19.28125 33.59375 26.515625 31.984375 
L 29.59375 31.296875 
Q 39.15625 29.25 43.1875 25.515625 
Q 47.21875 21.78125 47.21875 15.09375 
Q 47.21875 7.46875 41.1875 3.015625 
Q 35.15625 -1.421875 24.609375 -1.421875 
Q 20.21875 -1.421875 15.453125 -0.5625 
Q 10.6875 0.296875 5.421875 2 
L 5.421875 11.28125 
Q 10.40625 8.6875 15.234375 7.390625 
Q 20.0625 6.109375 24.8125 6.109375 
Q 31.15625 6.109375 34.5625 8.28125 
Q 37.984375 10.453125 37.984375 14.40625 
Q 37.984375 18.0625 35.515625 20.015625 
Q 33.0625 21.96875 24.703125 23.78125 
L 21.578125 24.515625 
Q 13.234375 26.265625 9.515625 29.90625 
Q 5.8125 33.546875 5.8125 39.890625 
Q 5.8125 47.609375 11.28125 51.796875 
Q 16.75 56 26.8125 56 
Q 31.78125 56 36.171875 55.265625 
Q 40.578125 54.546875 44.28125 53.078125 
z
" id="DejaVuSans-73"/>
     <path d="M 11.71875 12.40625 
L 22.015625 12.40625 
L 22.015625 4 
L 14.015625 -11.625 
L 7.71875 -11.625 
L 11.71875 4 
z
" id="DejaVuSans-2c"/>
     <path d="M 53.515625 70.515625 
L 53.515625 60.890625 
Q 47.90625 63.578125 42.921875 64.890625 
Q 37.9375 66.21875 33.296875 66.21875 
Q 25.25 66.21875 20.875 63.09375 
Q 16.5 59.96875 16.5 54.203125 
Q 16.5 49.359375 19.40625 46.890625 
Q 22.3125 44.4375 30.421875 42.921875 
L 36.375 41.703125 
Q 47.40625 39.59375 52.65625 34.296875 
Q 57.90625 29 57.90625 20.125 
Q 57.90625 9.515625 50.796875 4.046875 
Q 43.703125 -1.421875 29.984375 -1.421875 
Q 24.8125 -1.421875 18.96875 -0.25 
Q 13.140625 0.921875 6.890625 3.21875 
L 6.890625 13.375 
Q 12.890625 10.015625 18.65625 8.296875 
Q 24.421875 6.59375 29.984375 6.59375 
Q 38.421875 6.59375 43.015625 9.90625 
Q 47.609375 13.234375 47.609375 19.390625 
Q 47.609375 24.75 44.3125 27.78125 
Q 41.015625 30.8125 33.5 32.328125 
L 27.484375 33.5 
Q 16.453125 35.6875 11.515625 40.375 
Q 6.59375 45.0625 6.59375 53.421875 
Q 6.59375 63.09375 13.40625 68.65625 
Q 20.21875 74.21875 32.171875 74.21875 
Q 37.3125 74.21875 42.625 73.28125 
Q 47.953125 72.359375 53.515625 70.515625 
z
" id="DejaVuSans-53"/>
     <path d="M 48.78125 52.59375 
L 48.78125 44.1875 
Q 44.96875 46.296875 41.140625 47.34375 
Q 37.3125 48.390625 33.40625 48.390625 
Q 24.65625 48.390625 19.8125 42.84375 
Q 14.984375 37.3125 14.984375 27.296875 
Q 14.984375 17.28125 19.8125 11.734375 
Q 24.65625 6.203125 33.40625 6.203125 
Q 37.3125 6.203125 41.140625 7.25 
Q 44.96875 8.296875 48.78125 10.40625 
L 48.78125 2.09375 
Q 45.015625 0.34375 40.984375 -0.53125 
Q 36.96875 -1.421875 32.421875 -1.421875 
Q 20.0625 -1.421875 12.78125 6.34375 
Q 5.515625 14.109375 5.515625 27.296875 
Q 5.515625 40.671875 12.859375 48.328125 
Q 20.21875 56 33.015625 56 
Q 37.15625 56 41.109375 55.140625 
Q 45.0625 54.296875 48.78125 52.59375 
z
" id="DejaVuSans-63"/>
     <path d="M 9.078125 75.984375 
L 18.109375 75.984375 
L 18.109375 31.109375 
L 44.921875 54.6875 
L 56.390625 54.6875 
L 27.390625 29.109375 
L 57.625 0 
L 45.90625 0 
L 18.109375 26.703125 
L 18.109375 0 
L 9.078125 0 
z
" id="DejaVuSans-6b"/>
     <path d="M 34.28125 27.484375 
Q 23.390625 27.484375 19.1875 25 
Q 14.984375 22.515625 14.984375 16.5 
Q 14.984375 11.71875 18.140625 8.90625 
Q 21.296875 6.109375 26.703125 6.109375 
Q 34.1875 6.109375 38.703125 11.40625 
Q 43.21875 16.703125 43.21875 25.484375 
L 43.21875 27.484375 
z
M 52.203125 31.203125 
L 52.203125 0 
L 43.21875 0 
L 43.21875 8.296875 
Q 40.140625 3.328125 35.546875 0.953125 
Q 30.953125 -1.421875 24.3125 -1.421875 
Q 15.921875 -1.421875 10.953125 3.296875 
Q 6 8.015625 6 15.921875 
Q 6 25.140625 12.171875 29.828125 
Q 18.359375 34.515625 30.609375 34.515625 
L 43.21875 34.515625 
L 43.21875 35.40625 
Q 43.21875 41.609375 39.140625 45 
Q 35.0625 48.390625 27.6875 48.390625 
Q 23 48.390625 18.546875 47.265625 
Q 14.109375 46.140625 10.015625 43.890625 
L 10.015625 52.203125 
Q 14.9375 54.109375 19.578125 55.046875 
Q 24.21875 56 28.609375 56 
Q 40.484375 56 46.34375 49.84375 
Q 52.203125 43.703125 52.203125 31.203125 
z
" id="DejaVuSans-61"/>
     <path d="M 10.796875 72.90625 
L 49.515625 72.90625 
L 49.515625 64.59375 
L 19.828125 64.59375 
L 19.828125 46.734375 
Q 21.96875 47.46875 24.109375 47.828125 
Q 26.265625 48.1875 28.421875 48.1875 
Q 40.625 48.1875 47.75 41.5 
Q 54.890625 34.8125 54.890625 23.390625 
Q 54.890625 11.625 47.5625 5.09375 
Q 40.234375 -1.421875 26.90625 -1.421875 
Q 22.3125 -1.421875 17.546875 -0.640625 
Q 12.796875 0.140625 7.71875 1.703125 
L 7.71875 11.625 
Q 12.109375 9.234375 16.796875 8.0625 
Q 21.484375 6.890625 26.703125 6.890625 
Q 35.15625 6.890625 40.078125 11.328125 
Q 45.015625 15.765625 45.015625 23.390625 
Q 45.015625 31 40.078125 35.4375 
Q 35.15625 39.890625 26.703125 39.890625 
Q 22.75 39.890625 18.8125 39.015625 
Q 14.890625 38.140625 10.796875 36.28125 
z
" id="DejaVuSans-35"/>
     <path d="M 25.390625 72.90625 
L 33.6875 72.90625 
L 8.296875 -9.28125 
L 0 -9.28125 
z
" id="DejaVuSans-2f"/>
     <path d="M 19.671875 64.796875 
L 19.671875 37.40625 
L 32.078125 37.40625 
Q 38.96875 37.40625 42.71875 40.96875 
Q 46.484375 44.53125 46.484375 51.125 
Q 46.484375 57.671875 42.71875 61.234375 
Q 38.96875 64.796875 32.078125 64.796875 
z
M 9.8125 72.90625 
L 32.078125 72.90625 
Q 44.34375 72.90625 50.609375 67.359375 
Q 56.890625 61.8125 56.890625 51.125 
Q 56.890625 40.328125 50.609375 34.8125 
Q 44.34375 29.296875 32.078125 29.296875 
L 19.671875 29.296875 
L 19.671875 0 
L 9.8125 0 
z
" id="DejaVuSans-50"/>
     <path d="M 9.421875 75.984375 
L 18.40625 75.984375 
L 18.40625 0 
L 9.421875 0 
z
" id="DejaVuSans-6c"/>
     <path d="M 9.421875 54.6875 
L 18.40625 54.6875 
L 18.40625 0 
L 9.421875 0 
z
M 9.421875 75.984375 
L 18.40625 75.984375 
L 18.40625 64.59375 
L 9.421875 64.59375 
z
" id="DejaVuSans-69"/>
     <path d="M 39.40625 66.21875 
Q 28.65625 66.21875 22.328125 58.203125 
Q 16.015625 50.203125 16.015625 36.375 
Q 16.015625 22.609375 22.328125 14.59375 
Q 28.65625 6.59375 39.40625 6.59375 
Q 50.140625 6.59375 56.421875 14.59375 
Q 62.703125 22.609375 62.703125 36.375 
Q 62.703125 50.203125 56.421875 58.203125 
Q 50.140625 66.21875 39.40625 66.21875 
z
M 39.40625 74.21875 
Q 54.734375 74.21875 63.90625 63.9375 
Q 73.09375 53.65625 73.09375 36.375 
Q 73.09375 19.140625 63.90625 8.859375 
Q 54.734375 -1.421875 39.40625 -1.421875 
Q 24.03125 -1.421875 14.8125 8.828125 
Q 5.609375 19.09375 5.609375 36.375 
Q 5.609375 53.65625 14.8125 63.9375 
Q 24.03125 74.21875 39.40625 74.21875 
z
" id="DejaVuSans-4f"/>
     <path d="M 2.984375 54.6875 
L 12.5 54.6875 
L 29.59375 8.796875 
L 46.6875 54.6875 
L 56.203125 54.6875 
L 35.6875 0 
L 23.484375 0 
z
" id="DejaVuSans-76"/>
     <path d="M -0.203125 72.90625 
L 10.40625 72.90625 
L 30.609375 42.921875 
L 50.6875 72.90625 
L 61.28125 72.90625 
L 35.5 34.71875 
L 35.5 0 
L 25.59375 0 
L 25.59375 34.71875 
z
" id="DejaVuSans-59"/>
     <path d="M 31.78125 34.625 
Q 24.75 34.625 20.71875 30.859375 
Q 16.703125 27.09375 16.703125 20.515625 
Q 16.703125 13.921875 20.71875 10.15625 
Q 24.75 6.390625 31.78125 6.390625 
Q 38.8125 6.390625 42.859375 10.171875 
Q 46.921875 13.96875 46.921875 20.515625 
Q 46.921875 27.09375 42.890625 30.859375 
Q 38.875 34.625 31.78125 34.625 
z
M 21.921875 38.8125 
Q 15.578125 40.375 12.03125 44.71875 
Q 8.5 49.078125 8.5 55.328125 
Q 8.5 64.0625 14.71875 69.140625 
Q 20.953125 74.21875 31.78125 74.21875 
Q 42.671875 74.21875 48.875 69.140625 
Q 55.078125 64.0625 55.078125 55.328125 
Q 55.078125 49.078125 51.53125 44.71875 
Q 48 40.375 41.703125 38.8125 
Q 48.828125 37.15625 52.796875 32.3125 
Q 56.78125 27.484375 56.78125 20.515625 
Q 56.78125 9.90625 50.3125 4.234375 
Q 43.84375 -1.421875 31.78125 -1.421875 
Q 19.734375 -1.421875 13.25 4.234375 
Q 6.78125 9.90625 6.78125 20.515625 
Q 6.78125 27.484375 10.78125 32.3125 
Q 14.796875 37.15625 21.921875 38.8125 
z
M 18.3125 54.390625 
Q 18.3125 48.734375 21.84375 45.5625 
Q 25.390625 42.390625 31.78125 42.390625 
Q 38.140625 42.390625 41.71875 45.5625 
Q 45.3125 48.734375 45.3125 54.390625 
Q 45.3125 60.0625 41.71875 63.234375 
Q 38.140625 66.40625 31.78125 66.40625 
Q 25.390625 66.40625 21.84375 63.234375 
Q 18.3125 60.0625 18.3125 54.390625 
z
" id="DejaVuSans-38"/>
     <path d="M 8.203125 72.90625 
L 55.078125 72.90625 
L 55.078125 68.703125 
L 28.609375 0 
L 18.3125 0 
L 43.21875 64.59375 
L 8.203125 64.59375 
z
" id="DejaVuSans-37"/>
     <path d="M 4.890625 31.390625 
L 31.203125 31.390625 
L 31.203125 23.390625 
L 4.890625 23.390625 
z
" id="DejaVuSans-2d"/>
    </defs>
    <g transform="translate(211.1505 58.9002)scale(0.192 -0.192)">
     <use xlink:href="#DejaVuSans-52"/>
     <use x="69.419922" xlink:href="#DejaVuSans-65"/>
     <use x="130.943359" xlink:href="#DejaVuSans-74"/>
     <use x="170.152344" xlink:href="#DejaVuSans-75"/>
     <use x="233.53125" xlink:href="#DejaVuSans-72"/>
     <use x="274.628906" xlink:href="#DejaVuSans-6e"/>
     <use x="338.007812" xlink:href="#DejaVuSans-20"/>
     <use x="369.794922" xlink:href="#DejaVuSans-6f"/>
     <use x="430.976562" xlink:href="#DejaVuSans-66"/>
     <use x="466.181641" xlink:href="#DejaVuSans-20"/>
     <use x="497.96875" xlink:href="#DejaVuSans-42"/>
     <use x="566.572266" xlink:href="#DejaVuSans-6f"/>
     <use x="627.753906" xlink:href="#DejaVuSans-6e"/>
     <use x="691.132812" xlink:href="#DejaVuSans-64"/>
     <use x="754.609375" xlink:href="#DejaVuSans-73"/>
     <use x="806.708984" xlink:href="#DejaVuSans-2c"/>
     <use x="838.496094" xlink:href="#DejaVuSans-20"/>
     <use x="870.283203" xlink:href="#DejaVuSans-53"/>
     <use x="933.759766" xlink:href="#DejaVuSans-74"/>
     <use x="972.96875" xlink:href="#DejaVuSans-6f"/>
     <use x="1034.150391" xlink:href="#DejaVuSans-63"/>
     <use x="1089.130859" xlink:href="#DejaVuSans-6b"/>
     <use x="1147.041016" xlink:href="#DejaVuSans-73"/>
     <use x="1199.140625" xlink:href="#DejaVuSans-2c"/>
     <use x="1230.927734" xlink:href="#DejaVuSans-20"/>
     <use x="1262.714844" xlink:href="#DejaVuSans-61"/>
     <use x="1323.994141" xlink:href="#DejaVuSans-6e"/>
     <use x="1387.373047" xlink:href="#DejaVuSans-64"/>
     <use x="1450.849609" xlink:href="#DejaVuSans-20"/>
     <use x="1482.636719" xlink:href="#DejaVuSans-35"/>
     <use x="1546.259766" xlink:href="#DejaVuSans-30"/>
     <use x="1609.882812" xlink:href="#DejaVuSans-2f"/>
     <use x="1643.574219" xlink:href="#DejaVuSans-35"/>
     <use x="1707.197266" xlink:href="#DejaVuSans-30"/>
     <use x="1770.820312" xlink:href="#DejaVuSans-20"/>
     <use x="1802.607422" xlink:href="#DejaVuSans-50"/>
     <use x="1862.863281" xlink:href="#DejaVuSans-6f"/>
     <use x="1924.044922" xlink:href="#DejaVuSans-72"/>
     <use x="1965.158203" xlink:href="#DejaVuSans-74"/>
     <use x="2004.367188" xlink:href="#DejaVuSans-66"/>
     <use x="2039.572266" xlink:href="#DejaVuSans-6f"/>
     <use x="2100.753906" xlink:href="#DejaVuSans-6c"/>
     <use x="2128.537109" xlink:href="#DejaVuSans-69"/>
     <use x="2156.320312" xlink:href="#DejaVuSans-6f"/>
     <use x="2217.501953" xlink:href="#DejaVuSans-20"/>
     <use x="2249.289062" xlink:href="#DejaVuSans-4f"/>
     <use x="2328" xlink:href="#DejaVuSans-76"/>
     <use x="2387.179688" xlink:href="#DejaVuSans-65"/>
     <use x="2448.703125" xlink:href="#DejaVuSans-72"/>
     <use x="2489.816406" xlink:href="#DejaVuSans-20"/>
     <use x="2521.603516" xlink:href="#DejaVuSans-33"/>
     <use x="2585.226562" xlink:href="#DejaVuSans-30"/>
     <use x="2648.849609" xlink:href="#DejaVuSans-20"/>
     <use x="2680.636719" xlink:href="#DejaVuSans-59"/>
     <use x="2741.517578" xlink:href="#DejaVuSans-65"/>
     <use x="2803.041016" xlink:href="#DejaVuSans-61"/>
     <use x="2864.320312" xlink:href="#DejaVuSans-72"/>
     <use x="2905.433594" xlink:href="#DejaVuSans-73"/>
     <use x="2957.533203" xlink:href="#DejaVuSans-2c"/>
     <use x="2989.320312" xlink:href="#DejaVuSans-20"/>
     <use x="3021.107422" xlink:href="#DejaVuSans-31"/>
     <use x="3084.730469" xlink:href="#DejaVuSans-38"/>
     <use x="3148.353516" xlink:href="#DejaVuSans-37"/>
     <use x="3211.976562" xlink:href="#DejaVuSans-31"/>
     <use x="3275.599609" xlink:href="#DejaVuSans-2d"/>
     <use x="3311.683594" xlink:href="#DejaVuSans-32"/>
     <use x="3375.306641" xlink:href="#DejaVuSans-30"/>
     <use x="3438.929688" xlink:href="#DejaVuSans-31"/>
     <use x="3502.552734" xlink:href="#DejaVuSans-36"/>
    </g>
    <!--  -->
    <g transform="translate(553.5 80.4)scale(0.192 -0.192)"/>
   </g>
  </g>
  <g id="axes_2">
   <g id="patch_57">
    <path d="M 135 438.141176 
L 972 438.141176 
L 972 278.258824 
L 135 278.258824 
z
" style="fill:#ffffff;"/>
   </g>
   <g id="patch_58">
    <path clip-path="url(#p2c98b53a23)" d="M 168.940926 438.141176 
L 182.507378 438.141176 
L 182.507378 432.811765 
L 168.940926 432.811765 
z
" style="fill:#1f77b4;"/>
   </g>
   <g id="patch_59">
    <path clip-path="url(#p2c98b53a23)" d="M 182.507378 438.141176 
L 196.073829 438.141176 
L 196.073829 438.141176 
L 182.507378 438.141176 
z
" style="fill:#1f77b4;"/>
   </g>
   <g id="patch_60">
    <path clip-path="url(#p2c98b53a23)" d="M 196.073829 438.141176 
L 209.640281 438.141176 
L 209.640281 438.141176 
L 196.073829 438.141176 
z
" style="fill:#1f77b4;"/>
   </g>
   <g id="patch_61">
    <path clip-path="url(#p2c98b53a23)" d="M 209.640281 438.141176 
L 223.206732 438.141176 
L 223.206732 438.141176 
L 209.640281 438.141176 
z
" style="fill:#1f77b4;"/>
   </g>
   <g id="patch_62">
    <path clip-path="url(#p2c98b53a23)" d="M 223.206732 438.141176 
L 236.773183 438.141176 
L 236.773183 432.811765 
L 223.206732 432.811765 
z
" style="fill:#1f77b4;"/>
   </g>
   <g id="patch_63">
    <path clip-path="url(#p2c98b53a23)" d="M 236.773183 438.141176 
L 250.339635 438.141176 
L 250.339635 432.811765 
L 236.773183 432.811765 
z
" style="fill:#1f77b4;"/>
   </g>
   <g id="patch_64">
    <path clip-path="url(#p2c98b53a23)" d="M 250.339635 438.141176 
L 263.906086 438.141176 
L 263.906086 438.141176 
L 250.339635 438.141176 
z
" style="fill:#1f77b4;"/>
   </g>
   <g id="patch_65">
    <path clip-path="url(#p2c98b53a23)" d="M 263.906086 438.141176 
L 277.472538 438.141176 
L 277.472538 438.141176 
L 263.906086 438.141176 
z
" style="fill:#1f77b4;"/>
   </g>
   <g id="patch_66">
    <path clip-path="url(#p2c98b53a23)" d="M 277.472538 438.141176 
L 291.038989 438.141176 
L 291.038989 438.141176 
L 277.472538 438.141176 
z
" style="fill:#1f77b4;"/>
   </g>
   <g id="patch_67">
    <path clip-path="url(#p2c98b53a23)" d="M 291.038989 438.141176 
L 304.605441 438.141176 
L 304.605441 438.141176 
L 291.038989 438.141176 
z
" style="fill:#1f77b4;"/>
   </g>
   <g id="patch_68">
    <path clip-path="url(#p2c98b53a23)" d="M 304.605441 438.141176 
L 318.171892 438.141176 
L 318.171892 432.811765 
L 304.605441 432.811765 
z
" style="fill:#1f77b4;"/>
   </g>
   <g id="patch_69">
    <path clip-path="url(#p2c98b53a23)" d="M 318.171892 438.141176 
L 331.738344 438.141176 
L 331.738344 427.482353 
L 318.171892 427.482353 
z
" style="fill:#1f77b4;"/>
   </g>
   <g id="patch_70">
    <path clip-path="url(#p2c98b53a23)" d="M 331.738344 438.141176 
L 345.304795 438.141176 
L 345.304795 422.152941 
L 331.738344 422.152941 
z
" style="fill:#1f77b4;"/>
   </g>
   <g id="patch_71">
    <path clip-path="url(#p2c98b53a23)" d="M 345.304795 438.141176 
L 358.871247 438.141176 
L 358.871247 432.811765 
L 345.304795 432.811765 
z
" style="fill:#1f77b4;"/>
   </g>
   <g id="patch_72">
    <path clip-path="url(#p2c98b53a23)" d="M 358.871247 438.141176 
L 372.437698 438.141176 
L 372.437698 427.482353 
L 358.871247 427.482353 
z
" style="fill:#1f77b4;"/>
   </g>
   <g id="patch_73">
    <path clip-path="url(#p2c98b53a23)" d="M 372.437698 438.141176 
L 386.004149 438.141176 
L 386.004149 422.152941 
L 372.437698 422.152941 
z
" style="fill:#1f77b4;"/>
   </g>
   <g id="patch_74">
    <path clip-path="url(#p2c98b53a23)" d="M 386.004149 438.141176 
L 399.570601 438.141176 
L 399.570601 432.811765 
L 386.004149 432.811765 
z
" style="fill:#1f77b4;"/>
   </g>
   <g id="patch_75">
    <path clip-path="url(#p2c98b53a23)" d="M 399.570601 438.141176 
L 413.137052 438.141176 
L 413.137052 422.152941 
L 399.570601 422.152941 
z
" style="fill:#1f77b4;"/>
   </g>
   <g id="patch_76">
    <path clip-path="url(#p2c98b53a23)" d="M 413.137052 438.141176 
L 426.703504 438.141176 
L 426.703504 411.494118 
L 413.137052 411.494118 
z
" style="fill:#1f77b4;"/>
   </g>
   <g id="patch_77">
    <path clip-path="url(#p2c98b53a23)" d="M 426.703504 438.141176 
L 440.269955 438.141176 
L 440.269955 400.835294 
L 426.703504 400.835294 
z
" style="fill:#1f77b4;"/>
   </g>
   <g id="patch_78">
    <path clip-path="url(#p2c98b53a23)" d="M 440.269955 438.141176 
L 453.836407 438.141176 
L 453.836407 416.823529 
L 440.269955 416.823529 
z
" style="fill:#1f77b4;"/>
   </g>
   <g id="patch_79">
    <path clip-path="url(#p2c98b53a23)" d="M 453.836407 438.141176 
L 467.402858 438.141176 
L 467.402858 411.494118 
L 453.836407 411.494118 
z
" style="fill:#1f77b4;"/>
   </g>
   <g id="patch_80">
    <path clip-path="url(#p2c98b53a23)" d="M 467.402858 438.141176 
L 480.96931 438.141176 
L 480.96931 422.152941 
L 467.402858 422.152941 
z
" style="fill:#1f77b4;"/>
   </g>
   <g id="patch_81">
    <path clip-path="url(#p2c98b53a23)" d="M 480.96931 438.141176 
L 494.535761 438.141176 
L 494.535761 406.164706 
L 480.96931 406.164706 
z
" style="fill:#1f77b4;"/>
   </g>
   <g id="patch_82">
    <path clip-path="url(#p2c98b53a23)" d="M 494.535761 438.141176 
L 508.102213 438.141176 
L 508.102213 395.505882 
L 494.535761 395.505882 
z
" style="fill:#1f77b4;"/>
   </g>
   <g id="patch_83">
    <path clip-path="url(#p2c98b53a23)" d="M 508.102213 438.141176 
L 521.668664 438.141176 
L 521.668664 395.505882 
L 508.102213 395.505882 
z
" style="fill:#1f77b4;"/>
   </g>
   <g id="patch_84">
    <path clip-path="url(#p2c98b53a23)" d="M 521.668664 438.141176 
L 535.235115 438.141176 
L 535.235115 422.152941 
L 521.668664 422.152941 
z
" style="fill:#1f77b4;"/>
   </g>
   <g id="patch_85">
    <path clip-path="url(#p2c98b53a23)" d="M 535.235115 438.141176 
L 548.801567 438.141176 
L 548.801567 400.835294 
L 535.235115 400.835294 
z
" style="fill:#1f77b4;"/>
   </g>
   <g id="patch_86">
    <path clip-path="url(#p2c98b53a23)" d="M 548.801567 438.141176 
L 562.368018 438.141176 
L 562.368018 406.164706 
L 548.801567 406.164706 
z
" style="fill:#1f77b4;"/>
   </g>
   <g id="patch_87">
    <path clip-path="url(#p2c98b53a23)" d="M 562.368018 438.141176 
L 575.93447 438.141176 
L 575.93447 422.152941 
L 562.368018 422.152941 
z
" style="fill:#1f77b4;"/>
   </g>
   <g id="patch_88">
    <path clip-path="url(#p2c98b53a23)" d="M 575.93447 438.141176 
L 589.500921 438.141176 
L 589.500921 379.517647 
L 575.93447 379.517647 
z
" style="fill:#1f77b4;"/>
   </g>
   <g id="patch_89">
    <path clip-path="url(#p2c98b53a23)" d="M 589.500921 438.141176 
L 603.067373 438.141176 
L 603.067373 390.176471 
L 589.500921 390.176471 
z
" style="fill:#1f77b4;"/>
   </g>
   <g id="patch_90">
    <path clip-path="url(#p2c98b53a23)" d="M 603.067373 438.141176 
L 616.633824 438.141176 
L 616.633824 400.835294 
L 603.067373 400.835294 
z
" style="fill:#1f77b4;"/>
   </g>
   <g id="patch_91">
    <path clip-path="url(#p2c98b53a23)" d="M 616.633824 438.141176 
L 630.200276 438.141176 
L 630.200276 427.482353 
L 616.633824 427.482353 
z
" style="fill:#1f77b4;"/>
   </g>
   <g id="patch_92">
    <path clip-path="url(#p2c98b53a23)" d="M 630.200276 438.141176 
L 643.766727 438.141176 
L 643.766727 427.482353 
L 630.200276 427.482353 
z
" style="fill:#1f77b4;"/>
   </g>
   <g id="patch_93">
    <path clip-path="url(#p2c98b53a23)" d="M 643.766727 438.141176 
L 657.333179 438.141176 
L 657.333179 400.835294 
L 643.766727 400.835294 
z
" style="fill:#1f77b4;"/>
   </g>
   <g id="patch_94">
    <path clip-path="url(#p2c98b53a23)" d="M 657.333179 438.141176 
L 670.89963 438.141176 
L 670.89963 411.494118 
L 657.333179 411.494118 
z
" style="fill:#1f77b4;"/>
   </g>
   <g id="patch_95">
    <path clip-path="url(#p2c98b53a23)" d="M 670.89963 438.141176 
L 684.466081 438.141176 
L 684.466081 416.823529 
L 670.89963 416.823529 
z
" style="fill:#1f77b4;"/>
   </g>
   <g id="patch_96">
    <path clip-path="url(#p2c98b53a23)" d="M 684.466081 438.141176 
L 698.032533 438.141176 
L 698.032533 416.823529 
L 684.466081 416.823529 
z
" style="fill:#1f77b4;"/>
   </g>
   <g id="patch_97">
    <path clip-path="url(#p2c98b53a23)" d="M 698.032533 438.141176 
L 711.598984 438.141176 
L 711.598984 432.811765 
L 698.032533 432.811765 
z
" style="fill:#1f77b4;"/>
   </g>
   <g id="patch_98">
    <path clip-path="url(#p2c98b53a23)" d="M 711.598984 438.141176 
L 725.165436 438.141176 
L 725.165436 432.811765 
L 711.598984 432.811765 
z
" style="fill:#1f77b4;"/>
   </g>
   <g id="patch_99">
    <path clip-path="url(#p2c98b53a23)" d="M 725.165436 438.141176 
L 738.731887 438.141176 
L 738.731887 416.823529 
L 725.165436 416.823529 
z
" style="fill:#1f77b4;"/>
   </g>
   <g id="patch_100">
    <path clip-path="url(#p2c98b53a23)" d="M 738.731887 438.141176 
L 752.298339 438.141176 
L 752.298339 438.141176 
L 738.731887 438.141176 
z
" style="fill:#1f77b4;"/>
   </g>
   <g id="patch_101">
    <path clip-path="url(#p2c98b53a23)" d="M 752.298339 438.141176 
L 765.86479 438.141176 
L 765.86479 438.141176 
L 752.298339 438.141176 
z
" style="fill:#1f77b4;"/>
   </g>
   <g id="patch_102">
    <path clip-path="url(#p2c98b53a23)" d="M 765.86479 438.141176 
L 779.431242 438.141176 
L 779.431242 438.141176 
L 765.86479 438.141176 
z
" style="fill:#1f77b4;"/>
   </g>
   <g id="patch_103">
    <path clip-path="url(#p2c98b53a23)" d="M 779.431242 438.141176 
L 792.997693 438.141176 
L 792.997693 427.482353 
L 779.431242 427.482353 
z
" style="fill:#1f77b4;"/>
   </g>
   <g id="patch_104">
    <path clip-path="url(#p2c98b53a23)" d="M 792.997693 438.141176 
L 806.564145 438.141176 
L 806.564145 432.811765 
L 792.997693 432.811765 
z
" style="fill:#1f77b4;"/>
   </g>
   <g id="patch_105">
    <path clip-path="url(#p2c98b53a23)" d="M 806.564145 438.141176 
L 820.130596 438.141176 
L 820.130596 438.141176 
L 806.564145 438.141176 
z
" style="fill:#1f77b4;"/>
   </g>
   <g id="patch_106">
    <path clip-path="url(#p2c98b53a23)" d="M 820.130596 438.141176 
L 833.697047 438.141176 
L 833.697047 438.141176 
L 820.130596 438.141176 
z
" style="fill:#1f77b4;"/>
   </g>
   <g id="patch_107">
    <path clip-path="url(#p2c98b53a23)" d="M 833.697047 438.141176 
L 847.263499 438.141176 
L 847.263499 427.482353 
L 833.697047 427.482353 
z
" style="fill:#1f77b4;"/>
   </g>
   <g id="matplotlib.axis_3">
    <g id="xtick_7">
     <g id="line2d_12">
      <g>
       <use style="stroke:#000000;stroke-width:1.6;" x="201.96" xlink:href="#m88a6fdce94" y="438.141176"/>
      </g>
     </g>
     <g id="text_12">
      <!-- −40 -->
      <g transform="translate(185.07625 464.998676)scale(0.16 -0.16)">
       <use xlink:href="#DejaVuSans-2212"/>
       <use x="83.789062" xlink:href="#DejaVuSans-34"/>
       <use x="147.412109" xlink:href="#DejaVuSans-30"/>
      </g>
     </g>
    </g>
    <g id="xtick_8">
     <g id="line2d_13">
      <g>
       <use style="stroke:#000000;stroke-width:1.6;" x="335.88" xlink:href="#m88a6fdce94" y="438.141176"/>
      </g>
     </g>
     <g id="text_13">
      <!-- −20 -->
      <g transform="translate(318.99625 464.998676)scale(0.16 -0.16)">
       <use xlink:href="#DejaVuSans-2212"/>
       <use x="83.789062" xlink:href="#DejaVuSans-32"/>
       <use x="147.412109" xlink:href="#DejaVuSans-30"/>
      </g>
     </g>
    </g>
    <g id="xtick_9">
     <g id="line2d_14">
      <g>
       <use style="stroke:#000000;stroke-width:1.6;" x="469.8" xlink:href="#m88a6fdce94" y="438.141176"/>
      </g>
     </g>
     <g id="text_14">
      <!-- 0 -->
      <g transform="translate(464.71 464.998676)scale(0.16 -0.16)">
       <use xlink:href="#DejaVuSans-30"/>
      </g>
     </g>
    </g>
    <g id="xtick_10">
     <g id="line2d_15">
      <g>
       <use style="stroke:#000000;stroke-width:1.6;" x="603.72" xlink:href="#m88a6fdce94" y="438.141176"/>
      </g>
     </g>
     <g id="text_15">
      <!-- 20 -->
      <g transform="translate(593.54 464.998676)scale(0.16 -0.16)">
       <use xlink:href="#DejaVuSans-32"/>
       <use x="63.623047" xlink:href="#DejaVuSans-30"/>
      </g>
     </g>
    </g>
    <g id="xtick_11">
     <g id="line2d_16">
      <g>
       <use style="stroke:#000000;stroke-width:1.6;" x="737.64" xlink:href="#m88a6fdce94" y="438.141176"/>
      </g>
     </g>
     <g id="text_16">
      <!-- 40 -->
      <g transform="translate(727.46 464.998676)scale(0.16 -0.16)">
       <use xlink:href="#DejaVuSans-34"/>
       <use x="63.623047" xlink:href="#DejaVuSans-30"/>
      </g>
     </g>
    </g>
    <g id="xtick_12">
     <g id="line2d_17">
      <g>
       <use style="stroke:#000000;stroke-width:1.6;" x="871.56" xlink:href="#m88a6fdce94" y="438.141176"/>
      </g>
     </g>
     <g id="text_17">
      <!-- 60 -->
      <g transform="translate(861.38 464.998676)scale(0.16 -0.16)">
       <use xlink:href="#DejaVuSans-36"/>
       <use x="63.623047" xlink:href="#DejaVuSans-30"/>
      </g>
     </g>
    </g>
   </g>
   <g id="matplotlib.axis_4">
    <g id="ytick_5">
     <g id="line2d_18">
      <g>
       <use style="stroke:#000000;stroke-width:1.6;" x="135" xlink:href="#m472f243b3d" y="438.141176"/>
      </g>
     </g>
     <g id="text_18">
      <!-- 0 -->
      <g transform="translate(110.12 444.219926)scale(0.16 -0.16)">
       <use xlink:href="#DejaVuSans-30"/>
      </g>
     </g>
    </g>
    <g id="ytick_6">
     <g id="line2d_19">
      <g>
       <use style="stroke:#000000;stroke-width:1.6;" x="135" xlink:href="#m472f243b3d" y="384.847059"/>
      </g>
     </g>
     <g id="text_19">
      <!-- 10 -->
      <g transform="translate(99.94 390.925809)scale(0.16 -0.16)">
       <use xlink:href="#DejaVuSans-31"/>
       <use x="63.623047" xlink:href="#DejaVuSans-30"/>
      </g>
     </g>
    </g>
    <g id="ytick_7">
     <g id="line2d_20">
      <g>
       <use style="stroke:#000000;stroke-width:1.6;" x="135" xlink:href="#m472f243b3d" y="331.552941"/>
      </g>
     </g>
     <g id="text_20">
      <!-- 20 -->
      <g transform="translate(99.94 337.631691)scale(0.16 -0.16)">
       <use xlink:href="#DejaVuSans-32"/>
       <use x="63.623047" xlink:href="#DejaVuSans-30"/>
      </g>
     </g>
    </g>
    <g id="ytick_8">
     <g id="line2d_21">
      <g>
       <use style="stroke:#000000;stroke-width:1.6;" x="135" xlink:href="#m472f243b3d" y="278.258824"/>
      </g>
     </g>
     <g id="text_21">
      <!-- 30 -->
      <g transform="translate(99.94 284.337574)scale(0.16 -0.16)">
       <use xlink:href="#DejaVuSans-33"/>
       <use x="63.623047" xlink:href="#DejaVuSans-30"/>
      </g>
     </g>
    </g>
   </g>
   <g id="line2d_22">
    <path clip-path="url(#p2c98b53a23)" d="M 540.332351 438.141176 
L 540.332351 278.258824 
" style="fill:none;stroke:#1f77b4;stroke-dasharray:10.36,4.48;stroke-dashoffset:0;stroke-width:2.8;"/>
   </g>
   <g id="patch_108">
    <path d="M 135 438.141176 
L 135 278.258824 
" style="fill:none;stroke:#000000;stroke-linecap:square;stroke-linejoin:miter;stroke-width:0.8;"/>
   </g>
   <g id="patch_109">
    <path d="M 972 438.141176 
L 972 278.258824 
" style="fill:none;stroke:#000000;stroke-linecap:square;stroke-linejoin:miter;stroke-width:0.8;"/>
   </g>
   <g id="patch_110">
    <path d="M 135 438.141176 
L 972 438.141176 
" style="fill:none;stroke:#000000;stroke-linecap:square;stroke-linejoin:miter;stroke-width:0.8;"/>
   </g>
   <g id="patch_111">
    <path d="M 135 278.258824 
L 972 278.258824 
" style="fill:none;stroke:#000000;stroke-linecap:square;stroke-linejoin:miter;stroke-width:0.8;"/>
   </g>
  </g>
  <g id="axes_3">
   <g id="patch_112">
    <path d="M 135 630 
L 972 630 
L 972 470.117647 
L 135 470.117647 
z
" style="fill:#ffffff;"/>
   </g>
   <g id="patch_113">
    <path clip-path="url(#p3c8fa2e209)" d="M 322.651503 630 
L 330.10347 630 
L 330.10347 624.670588 
L 322.651503 624.670588 
z
" style="fill:#1f77b4;"/>
   </g>
   <g id="patch_114">
    <path clip-path="url(#p3c8fa2e209)" d="M 330.10347 630 
L 337.555437 630 
L 337.555437 630 
L 330.10347 630 
z
" style="fill:#1f77b4;"/>
   </g>
   <g id="patch_115">
    <path clip-path="url(#p3c8fa2e209)" d="M 337.555437 630 
L 345.007404 630 
L 345.007404 630 
L 337.555437 630 
z
" style="fill:#1f77b4;"/>
   </g>
   <g id="patch_116">
    <path clip-path="url(#p3c8fa2e209)" d="M 345.007404 630 
L 352.45937 630 
L 352.45937 630 
L 345.007404 630 
z
" style="fill:#1f77b4;"/>
   </g>
   <g id="patch_117">
    <path clip-path="url(#p3c8fa2e209)" d="M 352.45937 630 
L 359.911337 630 
L 359.911337 630 
L 352.45937 630 
z
" style="fill:#1f77b4;"/>
   </g>
   <g id="patch_118">
    <path clip-path="url(#p3c8fa2e209)" d="M 359.911337 630 
L 367.363304 630 
L 367.363304 624.670588 
L 359.911337 624.670588 
z
" style="fill:#1f77b4;"/>
   </g>
   <g id="patch_119">
    <path clip-path="url(#p3c8fa2e209)" d="M 367.363304 630 
L 374.815271 630 
L 374.815271 630 
L 367.363304 630 
z
" style="fill:#1f77b4;"/>
   </g>
   <g id="patch_120">
    <path clip-path="url(#p3c8fa2e209)" d="M 374.815271 630 
L 382.267238 630 
L 382.267238 630 
L 374.815271 630 
z
" style="fill:#1f77b4;"/>
   </g>
   <g id="patch_121">
    <path clip-path="url(#p3c8fa2e209)" d="M 382.267238 630 
L 389.719204 630 
L 389.719204 624.670588 
L 382.267238 624.670588 
z
" style="fill:#1f77b4;"/>
   </g>
   <g id="patch_122">
    <path clip-path="url(#p3c8fa2e209)" d="M 389.719204 630 
L 397.171171 630 
L 397.171171 630 
L 389.719204 630 
z
" style="fill:#1f77b4;"/>
   </g>
   <g id="patch_123">
    <path clip-path="url(#p3c8fa2e209)" d="M 397.171171 630 
L 404.623138 630 
L 404.623138 619.341176 
L 397.171171 619.341176 
z
" style="fill:#1f77b4;"/>
   </g>
   <g id="patch_124">
    <path clip-path="url(#p3c8fa2e209)" d="M 404.623138 630 
L 412.075105 630 
L 412.075105 630 
L 404.623138 630 
z
" style="fill:#1f77b4;"/>
   </g>
   <g id="patch_125">
    <path clip-path="url(#p3c8fa2e209)" d="M 412.075105 630 
L 419.527072 630 
L 419.527072 614.011765 
L 412.075105 614.011765 
z
" style="fill:#1f77b4;"/>
   </g>
   <g id="patch_126">
    <path clip-path="url(#p3c8fa2e209)" d="M 419.527072 630 
L 426.979038 630 
L 426.979038 624.670588 
L 419.527072 624.670588 
z
" style="fill:#1f77b4;"/>
   </g>
   <g id="patch_127">
    <path clip-path="url(#p3c8fa2e209)" d="M 426.979038 630 
L 434.431005 630 
L 434.431005 608.682353 
L 426.979038 608.682353 
z
" style="fill:#1f77b4;"/>
   </g>
   <g id="patch_128">
    <path clip-path="url(#p3c8fa2e209)" d="M 434.431005 630 
L 441.882972 630 
L 441.882972 608.682353 
L 434.431005 608.682353 
z
" style="fill:#1f77b4;"/>
   </g>
   <g id="patch_129">
    <path clip-path="url(#p3c8fa2e209)" d="M 441.882972 630 
L 449.334939 630 
L 449.334939 614.011765 
L 441.882972 614.011765 
z
" style="fill:#1f77b4;"/>
   </g>
   <g id="patch_130">
    <path clip-path="url(#p3c8fa2e209)" d="M 449.334939 630 
L 456.786906 630 
L 456.786906 598.023529 
L 449.334939 598.023529 
z
" style="fill:#1f77b4;"/>
   </g>
   <g id="patch_131">
    <path clip-path="url(#p3c8fa2e209)" d="M 456.786906 630 
L 464.238873 630 
L 464.238873 619.341176 
L 456.786906 619.341176 
z
" style="fill:#1f77b4;"/>
   </g>
   <g id="patch_132">
    <path clip-path="url(#p3c8fa2e209)" d="M 464.238873 630 
L 471.690839 630 
L 471.690839 603.352941 
L 464.238873 603.352941 
z
" style="fill:#1f77b4;"/>
   </g>
   <g id="patch_133">
    <path clip-path="url(#p3c8fa2e209)" d="M 471.690839 630 
L 479.142806 630 
L 479.142806 614.011765 
L 471.690839 614.011765 
z
" style="fill:#1f77b4;"/>
   </g>
   <g id="patch_134">
    <path clip-path="url(#p3c8fa2e209)" d="M 479.142806 630 
L 486.594773 630 
L 486.594773 619.341176 
L 479.142806 619.341176 
z
" style="fill:#1f77b4;"/>
   </g>
   <g id="patch_135">
    <path clip-path="url(#p3c8fa2e209)" d="M 486.594773 630 
L 494.04674 630 
L 494.04674 592.694118 
L 486.594773 592.694118 
z
" style="fill:#1f77b4;"/>
   </g>
   <g id="patch_136">
    <path clip-path="url(#p3c8fa2e209)" d="M 494.04674 630 
L 501.498707 630 
L 501.498707 582.035294 
L 494.04674 582.035294 
z
" style="fill:#1f77b4;"/>
   </g>
   <g id="patch_137">
    <path clip-path="url(#p3c8fa2e209)" d="M 501.498707 630 
L 508.950673 630 
L 508.950673 603.352941 
L 501.498707 603.352941 
z
" style="fill:#1f77b4;"/>
   </g>
   <g id="patch_138">
    <path clip-path="url(#p3c8fa2e209)" d="M 508.950673 630 
L 516.40264 630 
L 516.40264 592.694118 
L 508.950673 592.694118 
z
" style="fill:#1f77b4;"/>
   </g>
   <g id="patch_139">
    <path clip-path="url(#p3c8fa2e209)" d="M 516.40264 630 
L 523.854607 630 
L 523.854607 587.364706 
L 516.40264 587.364706 
z
" style="fill:#1f77b4;"/>
   </g>
   <g id="patch_140">
    <path clip-path="url(#p3c8fa2e209)" d="M 523.854607 630 
L 531.306574 630 
L 531.306574 598.023529 
L 523.854607 598.023529 
z
" style="fill:#1f77b4;"/>
   </g>
   <g id="patch_141">
    <path clip-path="url(#p3c8fa2e209)" d="M 531.306574 630 
L 538.758541 630 
L 538.758541 576.705882 
L 531.306574 576.705882 
z
" style="fill:#1f77b4;"/>
   </g>
   <g id="patch_142">
    <path clip-path="url(#p3c8fa2e209)" d="M 538.758541 630 
L 546.210508 630 
L 546.210508 571.376471 
L 538.758541 571.376471 
z
" style="fill:#1f77b4;"/>
   </g>
   <g id="patch_143">
    <path clip-path="url(#p3c8fa2e209)" d="M 546.210508 630 
L 553.662474 630 
L 553.662474 571.376471 
L 546.210508 571.376471 
z
" style="fill:#1f77b4;"/>
   </g>
   <g id="patch_144">
    <path clip-path="url(#p3c8fa2e209)" d="M 553.662474 630 
L 561.114441 630 
L 561.114441 619.341176 
L 553.662474 619.341176 
z
" style="fill:#1f77b4;"/>
   </g>
   <g id="patch_145">
    <path clip-path="url(#p3c8fa2e209)" d="M 561.114441 630 
L 568.566408 630 
L 568.566408 619.341176 
L 561.114441 619.341176 
z
" style="fill:#1f77b4;"/>
   </g>
   <g id="patch_146">
    <path clip-path="url(#p3c8fa2e209)" d="M 568.566408 630 
L 576.018375 630 
L 576.018375 614.011765 
L 568.566408 614.011765 
z
" style="fill:#1f77b4;"/>
   </g>
   <g id="patch_147">
    <path clip-path="url(#p3c8fa2e209)" d="M 576.018375 630 
L 583.470342 630 
L 583.470342 614.011765 
L 576.018375 614.011765 
z
" style="fill:#1f77b4;"/>
   </g>
   <g id="patch_148">
    <path clip-path="url(#p3c8fa2e209)" d="M 583.470342 630 
L 590.922308 630 
L 590.922308 603.352941 
L 583.470342 603.352941 
z
" style="fill:#1f77b4;"/>
   </g>
   <g id="patch_149">
    <path clip-path="url(#p3c8fa2e209)" d="M 590.922308 630 
L 598.374275 630 
L 598.374275 614.011765 
L 590.922308 614.011765 
z
" style="fill:#1f77b4;"/>
   </g>
   <g id="patch_150">
    <path clip-path="url(#p3c8fa2e209)" d="M 598.374275 630 
L 605.826242 630 
L 605.826242 630 
L 598.374275 630 
z
" style="fill:#1f77b4;"/>
   </g>
   <g id="patch_151">
    <path clip-path="url(#p3c8fa2e209)" d="M 605.826242 630 
L 613.278209 630 
L 613.278209 608.682353 
L 605.826242 608.682353 
z
" style="fill:#1f77b4;"/>
   </g>
   <g id="patch_152">
    <path clip-path="url(#p3c8fa2e209)" d="M 613.278209 630 
L 620.730176 630 
L 620.730176 614.011765 
L 613.278209 614.011765 
z
" style="fill:#1f77b4;"/>
   </g>
   <g id="patch_153">
    <path clip-path="url(#p3c8fa2e209)" d="M 620.730176 630 
L 628.182142 630 
L 628.182142 624.670588 
L 620.730176 624.670588 
z
" style="fill:#1f77b4;"/>
   </g>
   <g id="patch_154">
    <path clip-path="url(#p3c8fa2e209)" d="M 628.182142 630 
L 635.634109 630 
L 635.634109 624.670588 
L 628.182142 624.670588 
z
" style="fill:#1f77b4;"/>
   </g>
   <g id="patch_155">
    <path clip-path="url(#p3c8fa2e209)" d="M 635.634109 630 
L 643.086076 630 
L 643.086076 624.670588 
L 635.634109 624.670588 
z
" style="fill:#1f77b4;"/>
   </g>
   <g id="patch_156">
    <path clip-path="url(#p3c8fa2e209)" d="M 643.086076 630 
L 650.538043 630 
L 650.538043 624.670588 
L 643.086076 624.670588 
z
" style="fill:#1f77b4;"/>
   </g>
   <g id="patch_157">
    <path clip-path="url(#p3c8fa2e209)" d="M 650.538043 630 
L 657.99001 630 
L 657.99001 624.670588 
L 650.538043 624.670588 
z
" style="fill:#1f77b4;"/>
   </g>
   <g id="patch_158">
    <path clip-path="url(#p3c8fa2e209)" d="M 657.99001 630 
L 665.441977 630 
L 665.441977 614.011765 
L 657.99001 614.011765 
z
" style="fill:#1f77b4;"/>
   </g>
   <g id="patch_159">
    <path clip-path="url(#p3c8fa2e209)" d="M 665.441977 630 
L 672.893943 630 
L 672.893943 630 
L 665.441977 630 
z
" style="fill:#1f77b4;"/>
   </g>
   <g id="patch_160">
    <path clip-path="url(#p3c8fa2e209)" d="M 672.893943 630 
L 680.34591 630 
L 680.34591 630 
L 672.893943 630 
z
" style="fill:#1f77b4;"/>
   </g>
   <g id="patch_161">
    <path clip-path="url(#p3c8fa2e209)" d="M 680.34591 630 
L 687.797877 630 
L 687.797877 630 
L 680.34591 630 
z
" style="fill:#1f77b4;"/>
   </g>
   <g id="patch_162">
    <path clip-path="url(#p3c8fa2e209)" d="M 687.797877 630 
L 695.249844 630 
L 695.249844 624.670588 
L 687.797877 624.670588 
z
" style="fill:#1f77b4;"/>
   </g>
   <g id="matplotlib.axis_5">
    <g id="xtick_13">
     <g id="line2d_23">
      <g>
       <use style="stroke:#000000;stroke-width:1.6;" x="201.96" xlink:href="#m88a6fdce94" y="630"/>
      </g>
     </g>
     <g id="text_22">
      <!-- −40 -->
      <g transform="translate(185.07625 656.8575)scale(0.16 -0.16)">
       <use xlink:href="#DejaVuSans-2212"/>
       <use x="83.789062" xlink:href="#DejaVuSans-34"/>
       <use x="147.412109" xlink:href="#DejaVuSans-30"/>
      </g>
     </g>
    </g>
    <g id="xtick_14">
     <g id="line2d_24">
      <g>
       <use style="stroke:#000000;stroke-width:1.6;" x="335.88" xlink:href="#m88a6fdce94" y="630"/>
      </g>
     </g>
     <g id="text_23">
      <!-- −20 -->
      <g transform="translate(318.99625 656.8575)scale(0.16 -0.16)">
       <use xlink:href="#DejaVuSans-2212"/>
       <use x="83.789062" xlink:href="#DejaVuSans-32"/>
       <use x="147.412109" xlink:href="#DejaVuSans-30"/>
      </g>
     </g>
    </g>
    <g id="xtick_15">
     <g id="line2d_25">
      <g>
       <use style="stroke:#000000;stroke-width:1.6;" x="469.8" xlink:href="#m88a6fdce94" y="630"/>
      </g>
     </g>
     <g id="text_24">
      <!-- 0 -->
      <g transform="translate(464.71 656.8575)scale(0.16 -0.16)">
       <use xlink:href="#DejaVuSans-30"/>
      </g>
     </g>
    </g>
    <g id="xtick_16">
     <g id="line2d_26">
      <g>
       <use style="stroke:#000000;stroke-width:1.6;" x="603.72" xlink:href="#m88a6fdce94" y="630"/>
      </g>
     </g>
     <g id="text_25">
      <!-- 20 -->
      <g transform="translate(593.54 656.8575)scale(0.16 -0.16)">
       <use xlink:href="#DejaVuSans-32"/>
       <use x="63.623047" xlink:href="#DejaVuSans-30"/>
      </g>
     </g>
    </g>
    <g id="xtick_17">
     <g id="line2d_27">
      <g>
       <use style="stroke:#000000;stroke-width:1.6;" x="737.64" xlink:href="#m88a6fdce94" y="630"/>
      </g>
     </g>
     <g id="text_26">
      <!-- 40 -->
      <g transform="translate(727.46 656.8575)scale(0.16 -0.16)">
       <use xlink:href="#DejaVuSans-34"/>
       <use x="63.623047" xlink:href="#DejaVuSans-30"/>
      </g>
     </g>
    </g>
    <g id="xtick_18">
     <g id="line2d_28">
      <g>
       <use style="stroke:#000000;stroke-width:1.6;" x="871.56" xlink:href="#m88a6fdce94" y="630"/>
      </g>
     </g>
     <g id="text_27">
      <!-- 60 -->
      <g transform="translate(861.38 656.8575)scale(0.16 -0.16)">
       <use xlink:href="#DejaVuSans-36"/>
       <use x="63.623047" xlink:href="#DejaVuSans-30"/>
      </g>
     </g>
    </g>
    <g id="text_28">
     <!-- Return -->
     <g transform="translate(523.756 677.55825)scale(0.176 -0.176)">
      <use xlink:href="#DejaVuSans-52"/>
      <use x="69.419922" xlink:href="#DejaVuSans-65"/>
      <use x="130.943359" xlink:href="#DejaVuSans-74"/>
      <use x="170.152344" xlink:href="#DejaVuSans-75"/>
      <use x="233.53125" xlink:href="#DejaVuSans-72"/>
      <use x="274.628906" xlink:href="#DejaVuSans-6e"/>
     </g>
    </g>
   </g>
   <g id="matplotlib.axis_6">
    <g id="ytick_9">
     <g id="line2d_29">
      <g>
       <use style="stroke:#000000;stroke-width:1.6;" x="135" xlink:href="#m472f243b3d" y="630"/>
      </g>
     </g>
     <g id="text_29">
      <!-- 0 -->
      <g transform="translate(110.12 636.07875)scale(0.16 -0.16)">
       <use xlink:href="#DejaVuSans-30"/>
      </g>
     </g>
    </g>
    <g id="ytick_10">
     <g id="line2d_30">
      <g>
       <use style="stroke:#000000;stroke-width:1.6;" x="135" xlink:href="#m472f243b3d" y="576.705882"/>
      </g>
     </g>
     <g id="text_30">
      <!-- 10 -->
      <g transform="translate(99.94 582.784632)scale(0.16 -0.16)">
       <use xlink:href="#DejaVuSans-31"/>
       <use x="63.623047" xlink:href="#DejaVuSans-30"/>
      </g>
     </g>
    </g>
    <g id="ytick_11">
     <g id="line2d_31">
      <g>
       <use style="stroke:#000000;stroke-width:1.6;" x="135" xlink:href="#m472f243b3d" y="523.411765"/>
      </g>
     </g>
     <g id="text_31">
      <!-- 20 -->
      <g transform="translate(99.94 529.490515)scale(0.16 -0.16)">
       <use xlink:href="#DejaVuSans-32"/>
       <use x="63.623047" xlink:href="#DejaVuSans-30"/>
      </g>
     </g>
    </g>
    <g id="ytick_12">
     <g id="line2d_32">
      <g>
       <use style="stroke:#000000;stroke-width:1.6;" x="135" xlink:href="#m472f243b3d" y="470.117647"/>
      </g>
     </g>
     <g id="text_32">
      <!-- 30 -->
      <g transform="translate(99.94 476.196397)scale(0.16 -0.16)">
       <use xlink:href="#DejaVuSans-33"/>
       <use x="63.623047" xlink:href="#DejaVuSans-30"/>
      </g>
     </g>
    </g>
    <g id="text_33">
     <!-- Frequency -->
     <defs>
      <path d="M 9.8125 72.90625 
L 51.703125 72.90625 
L 51.703125 64.59375 
L 19.671875 64.59375 
L 19.671875 43.109375 
L 48.578125 43.109375 
L 48.578125 34.8125 
L 19.671875 34.8125 
L 19.671875 0 
L 9.8125 0 
z
" id="DejaVuSans-46"/>
      <path d="M 14.796875 27.296875 
Q 14.796875 17.390625 18.875 11.75 
Q 22.953125 6.109375 30.078125 6.109375 
Q 37.203125 6.109375 41.296875 11.75 
Q 45.40625 17.390625 45.40625 27.296875 
Q 45.40625 37.203125 41.296875 42.84375 
Q 37.203125 48.484375 30.078125 48.484375 
Q 22.953125 48.484375 18.875 42.84375 
Q 14.796875 37.203125 14.796875 27.296875 
z
M 45.40625 8.203125 
Q 42.578125 3.328125 38.25 0.953125 
Q 33.9375 -1.421875 27.875 -1.421875 
Q 17.96875 -1.421875 11.734375 6.484375 
Q 5.515625 14.40625 5.515625 27.296875 
Q 5.515625 40.1875 11.734375 48.09375 
Q 17.96875 56 27.875 56 
Q 33.9375 56 38.25 53.625 
Q 42.578125 51.265625 45.40625 46.390625 
L 45.40625 54.6875 
L 54.390625 54.6875 
L 54.390625 -20.796875 
L 45.40625 -20.796875 
z
" id="DejaVuSans-71"/>
      <path d="M 32.171875 -5.078125 
Q 28.375 -14.84375 24.75 -17.8125 
Q 21.140625 -20.796875 15.09375 -20.796875 
L 7.90625 -20.796875 
L 7.90625 -13.28125 
L 13.1875 -13.28125 
Q 16.890625 -13.28125 18.9375 -11.515625 
Q 21 -9.765625 23.484375 -3.21875 
L 25.09375 0.875 
L 2.984375 54.6875 
L 12.5 54.6875 
L 29.59375 11.921875 
L 46.6875 54.6875 
L 56.203125 54.6875 
z
" id="DejaVuSans-79"/>
     </defs>
     <g transform="translate(72.5716 596.342699)rotate(-90)scale(0.176 -0.176)">
      <use xlink:href="#DejaVuSans-46"/>
      <use x="57.410156" xlink:href="#DejaVuSans-72"/>
      <use x="98.492188" xlink:href="#DejaVuSans-65"/>
      <use x="160.015625" xlink:href="#DejaVuSans-71"/>
      <use x="223.492188" xlink:href="#DejaVuSans-75"/>
      <use x="286.871094" xlink:href="#DejaVuSans-65"/>
      <use x="348.394531" xlink:href="#DejaVuSans-6e"/>
      <use x="411.773438" xlink:href="#DejaVuSans-63"/>
      <use x="466.753906" xlink:href="#DejaVuSans-79"/>
     </g>
     <!--  -->
     <g transform="translate(92.27975 550.058824)rotate(-90)scale(0.176 -0.176)"/>
    </g>
   </g>
   <g id="line2d_33">
    <path clip-path="url(#p3c8fa2e209)" d="M 520.675881 630 
L 520.675881 470.117647 
" style="fill:none;stroke:#1f77b4;stroke-dasharray:10.36,4.48;stroke-dashoffset:0;stroke-width:2.8;"/>
   </g>
   <g id="patch_163">
    <path d="M 135 630 
L 135 470.117647 
" style="fill:none;stroke:#000000;stroke-linecap:square;stroke-linejoin:miter;stroke-width:0.8;"/>
   </g>
   <g id="patch_164">
    <path d="M 972 630 
L 972 470.117647 
" style="fill:none;stroke:#000000;stroke-linecap:square;stroke-linejoin:miter;stroke-width:0.8;"/>
   </g>
   <g id="patch_165">
    <path d="M 135 630 
L 972 630 
" style="fill:none;stroke:#000000;stroke-linecap:square;stroke-linejoin:miter;stroke-width:0.8;"/>
   </g>
   <g id="patch_166">
    <path d="M 135 470.117647 
L 972 470.117647 
" style="fill:none;stroke:#000000;stroke-linecap:square;stroke-linejoin:miter;stroke-width:0.8;"/>
   </g>
  </g>
 </g>
 <defs>
  <clipPath id="p9748adda5c">
   <rect height="159.882353" width="837" x="135" y="86.4"/>
  </clipPath>
  <clipPath id="p2c98b53a23">
   <rect height="159.882353" width="837" x="135" y="278.258824"/>
  </clipPath>
  <clipPath id="p3c8fa2e209">
   <rect height="159.882353" width="837" x="135" y="470.117647"/>
  </clipPath>
 </defs>
</svg>
